<?xml version="1.0" encoding="UTF-8" standalone="no"?>
<!-- Created with Inkscape (http://www.inkscape.org/) -->

<svg
   xmlns:dc="http://purl.org/dc/elements/1.1/"
   xmlns:cc="http://creativecommons.org/ns#"
   xmlns:rdf="http://www.w3.org/1999/02/22-rdf-syntax-ns#"
   xmlns:svg="http://www.w3.org/2000/svg"
   xmlns="http://www.w3.org/2000/svg"
   xmlns:sodipodi="http://sodipodi.sourceforge.net/DTD/sodipodi-0.dtd"
   xmlns:inkscape="http://www.inkscape.org/namespaces/inkscape"
   width="259.483mm"
   height="297mm"
   viewBox="0 0 259.483 297"
   version="1.1"
   id="svg8"
   inkscape:version="0.92.2 5c3e80d, 2017-08-06"
   sodipodi:docname="drawing.svg">
  <defs
     id="defs2" />
  <sodipodi:namedview
     id="base"
     pagecolor="#ffffff"
     bordercolor="#666666"
     borderopacity="1.0"
     inkscape:pageopacity="0.0"
     inkscape:pageshadow="2"
     inkscape:zoom="0.65428691"
     inkscape:cx="530.66956"
     inkscape:cy="552.45084"
     inkscape:document-units="mm"
     inkscape:current-layer="layer1"
     showgrid="false"
     inkscape:window-width="843"
     inkscape:window-height="508"
     inkscape:window-x="559"
     inkscape:window-y="351"
     inkscape:window-maximized="0" />
  <metadata
     id="metadata5">
    <rdf:RDF>
      <cc:Work
         rdf:about="">
        <dc:format>image/svg+xml</dc:format>
        <dc:type
           rdf:resource="http://purl.org/dc/dcmitype/StillImage" />
        <dc:title></dc:title>
      </cc:Work>
    </rdf:RDF>
  </metadata>
  <g
     inkscape:label="Layer 1"
     inkscape:groupmode="layer"
     id="layer1">
    <path
       style="fill:#d3d3d3;stroke-width:0.17680743"
       d="m 0.07100157,295.98133 c 0.06884,-0.2188 0.700919,-1.71061 1.40454803,-3.31515 5.682819,-12.95892 12.8898744,-27.02328 19.8871344,-38.80923 1.039202,-1.75038 2.673815,-4.5351 3.632476,-6.18825 5.963158,-10.28305 13.032483,-20.71742 18.267641,-26.96315 l 1.704299,-2.03327 0.0367,3.71295 c 0.06128,6.19045 0.406479,16.41318 0.677697,20.06764 0.216146,2.91228 0.720845,7.23374 0.861912,7.38 0.08698,0.0901 14.461855,-8.20364 20.347788,-11.73987 10.785437,-6.47986 21.046365,-13.04151 28.642805,-18.31649 2.04211,-1.41804 11.410718,-7.73394 20.819058,-14.03534 9.40838,-6.30141 17.10613,-11.50756 17.10613,-11.56921 0,-0.0618 -0.76126,-0.16563 -1.69167,-0.23104 -3.89396,-0.27373 -9.94564,-1.57393 -14.41087,-3.09621 -8.33122,-2.84025 -14.88343,-6.77743 -20.327428,-12.21465 -2.92484,-2.92118 -4.37098,-4.72182 -5.78962,-7.20884 -2.80882,-4.92417 -4.07157,-10.16038 -3.86959,-16.04599 0.18987,-5.53188 1.4632,-10.32619 4.2498,-16.00107 0.59689,-1.21557 1.10847,-2.2598 1.13681,-2.32054 0.0283,-0.0609 -0.77677,-0.4732 -1.78917,-0.91657 -7.83653,-3.43198 -15.729337,-4.17929 -23.545835,-2.22936 -5.293856,1.32061 -11.63,5.00868 -18.468506,10.74991 -3.322816,2.78969 -5.923567,5.42228 -13.179941,13.34138 -3.79247,4.13885 -6.949958,7.46943 -7.016651,7.40131 -0.220722,-0.22544 -1.904087,-7.36422 -2.788324,-11.8247 -2.25002,-11.35002 -3.208438,-20.28013 -3.212984,-29.93731 -0.003,-6.53034 0.472517,-11.85938 1.633172,-18.29957 1.614545,-8.958792 5.828673,-18.783704 11.255393,-26.241074 2.884255,-3.963512 7.17843,-8.596676 10.944192,-11.808118 6.044275,-5.154574 15.136489,-10.735176 24.005431,-14.734015 7.851299,-3.540006 17.348553,-6.729693 25.557923,-8.583718 8.967678,-2.02528 17.122348,-4.648479 21.218408,-6.825524 5.76502,-3.064127 10.69801,-8.086257 12.9289,-13.162601 0.31479,-0.716328 0.63473,-1.302415 0.71095,-1.302415 0.0762,0 0.41683,0.878774 0.75695,1.952831 2.39238,7.555254 2.76237,16.215446 1.0548,24.689269 -1.27648,6.334541 -4.77522,13.771586 -9.58472,20.373648 -3.2206,4.421021 -7.98368,9.461591 -11.84322,12.533257 -1.00175,0.797254 -1.77762,1.449562 -1.72413,1.449562 0.0535,0 0.80243,-0.317532 1.66432,-0.705616 8.97576,-4.041564 16.33507,-11.276156 22.24976,-21.872693 1.46865,-2.631159 3.25905,-6.432705 4.02199,-8.539803 1.82769,-5.047879 3.98331,-14.675719 4.96174,-22.160947 0.24356,-1.86325 0.48944,-3.743533 0.54639,-4.178411 l 0.10359,-0.790684 0.50552,0.613877 c 0.74882,0.909251 2.52097,3.936357 3.31312,5.659215 1.93472,4.207945 3.22168,8.920073 3.86139,14.138269 0.39421,3.215262 0.39311,9.757963 -0.002,13.437364 -0.90313,8.405675 -2.56721,14.846481 -5.79911,22.445319 -2.62073,6.161807 -5.30986,11.257148 -8.58952,16.275504 -2.92547,4.476324 -4.91741,6.982034 -8.34374,10.495744 -1.52158,1.56042 -2.07887,2.23294 -1.77558,2.14272 1.4162,-0.42132 4.94527,-2.58884 7.16069,-4.39805 1.78542,-1.45806 5.18731,-4.86847 6.86436,-6.881534 3.28787,-3.94667 7.17827,-11.513084 10.4259,-20.277276 1.54897,-4.18009 2.31463,-6.783845 4.10727,-13.967781 1.66379,-6.667488 3.865,-15.113122 4.70038,-18.03436 0.93256,-3.261135 3.67662,-11.298671 4.97994,-14.586611 3.59939,-9.080281 8.20649,-16.247939 13.07407,-20.340453 5.21322,-4.3831229 10.97909,-7.0048168 18.05767,-8.2106642 2.88982,-0.4922897 3.43703,-0.4789299 3.57915,0.087384 0.33006,1.3150258 -0.66401,3.6244703 -2.52633,5.8693728 -0.66166,0.7975724 -1.86617,2.2528464 -2.67672,3.2339404 -3.16833,3.834984 -5.77428,8.34102 -6.30087,10.895036 -0.79258,3.844016 -1.26314,11.691014 -0.99368,16.569905 0.27578,4.993149 -0.0523,14.039158 -0.78661,21.687528 -0.83844,8.733499 -1.98511,14.977219 -4.09011,22.270965 -3.21459,11.138294 -5.76993,18.091868 -9.0989,24.759818 -3.97534,7.96269 -12.48026,19.60453 -17.17656,23.51196 -0.64058,0.53296 -1.13198,1.00169 -1.09206,1.04161 0.0398,0.04 0.89016,-0.38506 1.88937,-0.94442 9.70248,-5.43152 18.95749,-16.12002 25.26016,-29.17263 1.70465,-3.53028 2.48298,-5.486522 3.83634,-9.641969 3.96106,-12.162287 7.52771,-30.442977 8.61133,-44.136858 1.24131,-15.686583 3.96211,-28.047175 7.79937,-35.432572 4.17865,-8.0425096 11.70688,-12.815053 21.7781,-13.80628868 2.27932,-0.22433581 7.26207,-0.0993902 7.81391,0.19593299 0.49803,0.26652779 0.61395,1.46973539 0.30134,3.12720149 -0.34679,1.8386704 -1.08599,3.7135994 -2.30694,5.8512234 -2.20165,3.8546728 -4.01453,8.9145978 -5.05078,14.0972188 -0.63392,3.170233 -2.0301,13.566021 -2.83764,21.128488 -1.88064,17.611404 -5.49329,40.73629 -7.80306,49.948094 -2.92769,11.676109 -6.28599,22.521789 -8.37633,27.051549 -0.35903,0.77795 -1.0083,2.24057 -1.44289,3.25028 -0.43458,1.00972 -1.41239,3.07837 -2.17294,4.597 -5.81167,11.60487 -13.39112,20.88172 -22.22712,27.20479 -1.41292,1.01108 -1.91811,1.45866 -1.6464,1.45866 0.67393,0 4.75519,-0.87105 7.11004,-1.51747 9.54238,-2.61947 19.01817,-7.30758 25.7705,-12.74995 12.16693,-9.80648 22.80409,-23.91986 28.69338,-38.07033 1.3931,-3.34732 3.7332,-10.080123 4.79232,-13.788232 5.12886,-17.956862 4.40822,-33.149261 -1.96593,-41.445258 -0.96743,-1.259163 -1.0789,-1.301737 -2.45947,-0.939639 -2.96748,0.77831 -5.45774,2.749433 -6.65833,5.270253 -0.94575,1.985777 -1.94652,5.341997 -3.03549,10.179744 -0.54064,2.40183 -1.01449,4.398472 -1.053,4.436984 -0.24868,0.248692 -0.60411,-2.419842 -0.83754,-6.288455 -0.23413,-3.879708 0.005,-13.195075 0.47673,-18.598021 0.31765,-3.636031 1.09924,-8.922999 1.96035,-13.260558 1.93729,-9.758745 5.22763,-18.386783 8.96772,-23.515386 0.99952,-1.3705957 2.60068,-3.1825335 2.81234,-3.1825335 0.11604,0 0.14828,1.0331617 0.0923,2.9615247 -0.10902,3.7673798 0.12748,10.1420818 0.47397,12.7743348 0.65324,4.962802 3.08091,14.25017 4.92203,18.829992 0.43001,1.069684 1.50877,3.678535 2.39716,5.797445 6.65329,15.868129 8.37307,22.406045 8.89304,33.807414 0.20853,4.572751 0.10894,13.200461 -0.19697,17.061925 -0.10399,1.312787 -0.27169,3.421224 -0.37264,4.685396 -0.10099,1.26417 -0.41813,3.69086 -0.70483,5.39262 -2.47108,14.66839 -9.25675,30.05003 -18.48977,41.91218 -6.47314,8.31639 -15.785,17.24525 -25.6134,24.55987 -5.55664,4.13545 -16.78669,11.7011 -21.22611,14.29995 -8.78743,5.14422 -192.44878043,109.11919 -192.74807743,109.11919 -0.04133,0 -0.01876,-0.17903 0.05018,-0.39782 z"
       id="path77"
       inkscape:connector-curvature="0" />
  </g>
</svg>
