<?xml version="1.0" standalone="no"?>
<!DOCTYPE svg PUBLIC "-//W3C//DTD SVG 20010904//EN"
 "http://www.w3.org/TR/2001/REC-SVG-20010904/DTD/svg10.dtd">
<svg version="1.0" xmlns="http://www.w3.org/2000/svg"
 width="897.000000pt" height="1023.000000pt" viewBox="0 0 897.000000 1023.000000"
 preserveAspectRatio="xMidYMid meet">

<g transform="translate(0.000000,1023.000000) scale(0.100000,-0.100000)"
fill="#000000" stroke="none">
<path d="M0 8933 c0 -715 3 -3001 7 -5080 l6 -3781 62 137 c56 124 103 218 91
181 -2 -8 -33 -78 -69 -155 -35 -77 -71 -159 -80 -182 l-17 -43 4480 0 4480 0
2 3487 c3 3903 3 3583 0 5238 -1 671 1 1281 4 1355 l7 135 -474 -3 c-324 -2
-475 -6 -480 -14 -4 -7 -8 -6 -11 3 -4 11 -33 14 -134 14 -1695 -5 -7248 -3
-7511 2 l-363 6 0 -1300z m7560 1261 c-30 -7 -56 -11 -58 -9 -6 6 60 23 88 23
14 0 0 -6 -30 -14z m-115 -34 c-27 -11 -52 -20 -55 -19 -11 2 76 38 90 38 8 0
-7 -9 -35 -19z m582 -2 c-3 -8 -6 -5 -6 6 -1 11 2 17 5 13 3 -3 4 -12 1 -19z
m-703 -54 c-32 -19 -74 -47 -91 -60 -18 -14 -33 -21 -33 -17 0 12 155 112 174
113 6 0 -17 -16 -50 -36z m-434 19 c0 -5 -24 -8 -52 -8 -29 0 -75 -3 -102 -8
-27 -4 -47 -5 -44 -1 16 16 198 31 198 17z m1127 -25 c-3 -7 -5 -2 -5 12 0 14
2 19 5 13 2 -7 2 -19 0 -25z m-1402 -19 c-33 -10 -64 -18 -70 -18 -15 1 97 38
115 37 8 0 -12 -8 -45 -19z m1773 -171 l-2 -173 -6 170 -5 170 -60 -81 c-33
-45 -66 -89 -73 -100 -10 -16 -11 -15 -1 6 28 58 122 180 140 180 5 0 8 -76 7
-172z m-1498 144 c0 -10 -6 -27 -14 -38 -13 -17 -13 -15 -3 19 13 41 17 46 17
19z m1116 -8 c-4 -15 -41 -96 -82 -182 -42 -85 -83 -177 -91 -204 -8 -28 -17
-47 -20 -44 -10 10 37 124 113 280 41 81 74 154 74 162 0 8 3 14 6 14 3 0 3
-12 0 -26z m-1511 -4 c-22 -10 -44 -18 -50 -18 -5 0 8 8 30 19 22 10 45 18 50
18 6 0 -8 -9 -30 -19z m695 -23 c0 -2 -19 -21 -42 -42 l-43 -40 40 43 c36 39
45 47 45 39z m-781 -11 c-2 -2 -15 -9 -29 -15 -24 -11 -24 -11 -6 3 16 13 49
24 35 12z m440 -38 c-12 -22 -97 -138 -109 -148 -9 -8 -134 -173 -152 -202
-39 -61 -62 -106 -79 -158 -12 -37 -17 -43 -13 -20 14 84 74 183 221 366 49
60 99 127 112 147 25 40 39 51 20 15z m-519 -3 c0 -2 -10 -9 -22 -15 -22 -11
-22 -10 -4 4 21 17 26 19 26 11z m-55 -33 c-6 -5 -37 -29 -70 -54 -129 -98
-272 -267 -365 -430 -37 -67 -50 -78 -19 -15 81 159 249 358 393 464 51 38 88
59 61 35z m818 -24 c-11 -13 -37 -49 -58 -80 -21 -32 -40 -58 -42 -58 -8 0 31
62 82 132 11 15 24 28 29 28 5 0 0 -10 -11 -22z m1122 -68 c-9 -16 -18 -30
-21 -30 -2 0 2 14 11 30 9 17 18 30 21 30 2 0 -2 -13 -11 -30z m-46 -92 c-12
-23 -39 -88 -60 -143 -21 -55 -39 -95 -39 -88 -1 31 108 288 118 279 2 -2 -7
-24 -19 -48z m-1191 -18 c-5 -17 -14 -33 -19 -36 -8 -5 4 37 17 57 11 19 12 8
2 -21z m-47 -101 c-11 -24 -20 -41 -20 -37 -1 12 31 89 35 85 3 -2 -4 -24 -15
-48z m1477 -69 c-1 -29 -2 -26 -8 15 -11 69 -10 126 1 65 4 -25 7 -61 7 -80z
m-614 -39 c-9 -40 -18 -70 -21 -68 -2 3 4 37 13 76 9 40 18 71 20 68 2 -2 -3
-36 -12 -76z m-893 32 c-12 -20 -14 -14 -5 12 4 9 9 14 11 11 3 -2 0 -13 -6
-23z m-21 -60 c-11 -17 -11 -17 -6 0 3 10 6 24 7 30 0 9 2 9 5 0 3 -7 0 -20
-6 -30z m1537 -20 c-3 -10 -5 -2 -5 17 0 19 2 27 5 18 2 -10 2 -26 0 -35z
m-1553 -37 c-3 -15 -8 -25 -11 -23 -2 3 -1 17 3 31 3 15 8 25 11 23 2 -3 1
-17 -3 -31z m1176 -41 c-11 -33 -17 -46 -14 -30 10 54 27 110 30 100 2 -5 -5
-37 -16 -70z m-3492 38 c14 -36 32 -105 31 -118 0 -5 -11 22 -23 60 -14 42
-28 69 -35 67 -7 -1 -10 2 -6 8 11 17 22 11 33 -17z m3879 -20 c-3 -10 -5 -4
-5 12 0 17 2 24 5 18 2 -7 2 -21 0 -30z m-660 -5 c-3 -7 -5 -2 -5 12 0 14 2
19 5 13 2 -7 2 -19 0 -25z m-3281 -25 c-58 -116 -175 -247 -296 -332 -69 -49
-282 -161 -305 -161 -5 0 49 29 120 65 224 111 361 235 465 418 39 69 50 76
16 10z m2359 -23 c-4 -17 -9 -30 -11 -27 -2 2 -1 18 2 36 4 17 9 30 11 27 3
-2 2 -19 -2 -36z m-358 -2 c-3 -7 -5 -2 -5 12 0 14 2 19 5 13 2 -7 2 -19 0
-25z m1269 -15 c-12 -84 -18 -114 -23 -109 -6 5 18 156 25 156 2 0 1 -21 -2
-47z m719 -112 c14 -57 24 -106 22 -108 -5 -5 -55 182 -61 232 -5 36 -5 37 4
10 5 -16 21 -77 35 -134z m-3469 73 c19 -29 34 -57 34 -61 0 -4 -19 21 -42 57
l-42 65 -12 -85 -13 -85 6 80 c3 44 7 83 10 88 8 13 23 -3 59 -59z m777 36
c-3 -11 -10 -23 -16 -27 -5 -3 -8 -2 -5 3 3 5 8 17 11 27 9 24 16 22 10 -3z
m694 -47 c-3 -10 -5 -2 -5 17 0 19 2 27 5 18 2 -10 2 -26 0 -35z m1528 -33
c-11 -42 -13 -46 -9 -15 6 46 14 78 19 73 2 -2 -2 -28 -10 -58z m-3418 18 c-3
-8 -6 -5 -6 6 -1 11 2 17 5 13 3 -3 4 -12 1 -19z m1154 -25 c-11 -21 -20 -35
-21 -31 0 12 33 78 38 74 2 -2 -6 -21 -17 -43z m1068 -52 c-7 -39 -14 -69 -17
-67 -2 3 1 37 8 76 7 39 14 69 16 67 3 -2 -1 -36 -7 -76z m-342 -593 c-1 -123
-2 -23 -2 222 0 245 1 345 2 223 2 -123 2 -323 0 -445z m-1853 543 c5 -55 5
-55 -9 14 -15 78 -18 116 -5 71 5 -15 11 -53 14 -85z m473 4 c19 -42 34 -77
32 -80 -2 -2 -21 32 -41 76 -20 43 -34 79 -32 79 3 0 21 -34 41 -75z m2640 18
c-3 -10 -5 -4 -5 12 0 17 2 24 5 18 2 -7 2 -21 0 -30z m260 -5 c-3 -7 -5 -2
-5 12 0 14 2 19 5 13 2 -7 2 -19 0 -25z m-2288 -17 c-6 -18 -13 -30 -15 -28
-2 2 1 18 7 36 6 18 13 30 15 28 2 -2 -1 -18 -7 -36z m-772 -8 c-3 -10 -5 -4
-5 12 0 17 2 24 5 18 2 -7 2 -21 0 -30z m2790 -50 c-3 -10 -5 -2 -5 17 0 19 2
27 5 18 2 -10 2 -26 0 -35z m254 1 c-5 -21 -9 -30 -10 -19 -1 24 10 67 15 62
3 -2 0 -22 -5 -43z m-1184 -6 c-3 -7 -5 -2 -5 12 0 14 2 19 5 13 2 -7 2 -19 0
-25z m-1132 -48 c-13 -36 -24 -60 -24 -53 -1 16 40 126 44 121 2 -2 -7 -33
-20 -68z m2890 -45 c21 -60 66 -181 102 -269 35 -87 62 -160 60 -163 -9 -8
-207 510 -207 539 0 22 8 2 45 -107z m-3635 29 c-6 -38 -14 -71 -17 -74 -3 -3
-3 11 0 30 3 19 9 54 12 78 4 24 9 41 11 39 3 -2 0 -35 -6 -73z m2795 -39 c-4
-42 -10 -74 -12 -71 -3 2 -2 39 2 81 4 42 10 74 12 71 3 -2 2 -39 -2 -81z
m-3078 -152 c-1 -43 -3 -8 -3 77 0 85 2 120 3 78 2 -43 2 -113 0 -155z m2142
126 c-13 -96 -25 -124 -15 -34 9 81 18 127 22 122 2 -2 -1 -42 -7 -88z m1188
54 c-3 -10 -5 -4 -5 12 0 17 2 24 5 18 2 -7 2 -21 0 -30z m-2799 -53 c0 -8 -6
1 -13 20 -7 19 -13 42 -13 50 0 8 6 -1 13 -20 7 -19 13 -42 13 -50z m2789 -12
c-3 -7 -5 -2 -5 12 0 14 2 19 5 13 2 -7 2 -19 0 -25z m-2336 -39 c-11 -30 -20
-49 -20 -43 -1 15 30 106 35 101 2 -2 -5 -28 -15 -58z m-421 -52 c6 -32 10
-61 7 -63 -2 -3 -10 23 -16 57 -7 33 -15 68 -17 78 -5 13 -4 14 4 1 5 -8 15
-41 22 -73z m-303 51 c-3 -8 -6 -5 -6 6 -1 11 2 17 5 13 3 -3 4 -12 1 -19z
m3038 -118 c-12 -90 -13 -94 -9 -30 6 88 16 159 21 145 1 -6 -4 -57 -12 -115z
m-4065 91 c-8 -5 -26 -11 -40 -15 -21 -5 -20 -3 5 9 32 15 60 20 35 6z m3827
-28 c-3 -10 -5 -4 -5 12 0 17 2 24 5 18 2 -7 2 -21 0 -30z m-2823 -57 c-10
-42 -19 -74 -21 -72 -3 2 3 39 12 81 10 42 19 74 21 72 3 -2 -3 -39 -12 -81z
m-1124 43 c-30 -11 -59 -18 -65 -16 -5 2 13 11 40 19 72 23 90 20 25 -3z
m3007 -36 c-3 -10 -5 -4 -5 12 0 17 2 24 5 18 2 -7 2 -21 0 -30z m-3090 11
c-3 -3 -12 -4 -19 -1 -8 3 -5 6 6 6 11 1 17 -2 13 -5z m1912 -43 c-16 -54 -24
-46 -9 9 6 23 14 40 16 37 3 -3 0 -24 -7 -46z m2096 -118 c-8 -75 -18 -139
-22 -142 -3 -4 -3 12 0 34 3 22 11 94 18 160 7 66 15 112 17 103 2 -9 -4 -79
-13 -155z m-4060 148 c-11 -5 -36 -11 -55 -14 -35 -6 -34 -6 5 8 43 14 84 19
50 6z m-98 -27 c-3 -3 -12 -4 -19 -1 -8 3 -5 6 6 6 11 1 17 -2 13 -5z m-102
-25 c-38 -10 -74 -17 -80 -15 -12 3 103 34 130 34 11 0 -11 -8 -50 -19z m1822
-259 c2 -124 1 -256 -4 -295 -6 -50 -8 6 -8 195 0 146 -3 292 -7 325 -5 47 -5
54 4 30 5 -16 12 -131 15 -255z m1510 228 c-3 -7 -5 -2 -5 12 0 14 2 19 5 13
2 -7 2 -19 0 -25z m-3492 -9 c-38 -10 -74 -17 -80 -15 -12 3 103 34 130 34 11
0 -11 -8 -50 -19z m1372 -36 c-3 -10 -5 -2 -5 17 0 19 2 27 5 18 2 -10 2 -26
0 -35z m930 25 c-3 -8 -6 -5 -6 6 -1 11 2 17 5 13 3 -3 4 -12 1 -19z m-727
-63 c-11 -33 -17 -46 -14 -30 10 54 27 110 30 100 2 -5 -5 -37 -16 -70z m1905
-25 c-4 -45 -9 -79 -12 -76 -2 2 -1 41 3 85 3 45 9 80 11 77 3 -3 2 -41 -2
-86z m-3578 74 c-3 -3 -12 -4 -19 -1 -8 3 -5 6 6 6 11 1 17 -2 13 -5z m-76
-20 c-25 -8 -47 -12 -49 -9 -5 5 56 23 78 23 8 0 -5 -6 -29 -14z m2457 -32
c-6 -24 -13 -41 -15 -38 -2 2 1 23 7 46 6 23 13 40 15 38 2 -2 -1 -23 -7 -46z
m2379 -29 c-2 -16 -4 -5 -4 22 0 28 2 40 4 28 2 -13 2 -35 0 -50z m-4952 26
c-32 -10 -61 -16 -63 -14 -5 5 88 34 108 33 8 0 -12 -8 -45 -19z m1645 -55
c-16 -76 -22 -63 -8 15 7 35 14 59 16 53 2 -7 -2 -37 -8 -68z m-1779 10 c-18
-8 -36 -13 -39 -10 -6 7 37 25 58 25 8 -1 0 -7 -19 -15z m-77 -28 c-51 -22
-82 -27 -39 -6 22 11 47 19 55 19 8 0 1 -6 -16 -13z m2037 -47 c-11 -30 -20
-49 -20 -43 -1 15 30 106 35 101 2 -2 -5 -28 -15 -58z m703 -43 c-9 -37 -18
-65 -21 -63 -2 3 4 34 13 71 9 37 18 65 21 63 2 -3 -4 -34 -13 -71z m-2859 44
c-22 -10 -44 -18 -50 -18 -5 0 8 8 30 19 22 10 45 18 50 18 6 0 -8 -9 -30 -19z
m5758 -22 c19 -24 46 -63 60 -88 29 -51 80 -196 74 -213 -2 -6 -11 18 -21 54
-27 93 -74 187 -120 237 -37 40 -43 43 -75 37 -115 -22 -203 -110 -267 -270
-13 -33 -22 -46 -19 -30 8 42 57 142 93 192 32 43 95 86 160 109 61 22 78 18
115 -28z m361 -8 c5 -17 4 -20 -2 -10 -5 8 -13 26 -16 40 -5 17 -4 20 2 10 5
-8 13 -26 16 -40z m-2037 -22 c-2 -13 -4 -5 -4 17 -1 22 1 32 4 23 2 -10 2
-28 0 -40z m1190 -280 c-1 -62 -3 -12 -3 112 0 124 2 174 3 113 2 -62 2 -164
0 -225z m-3332 257 c-9 -31 -19 -55 -21 -53 -2 3 4 30 13 61 9 32 18 56 20 53
2 -2 -3 -29 -12 -61z m-2050 30 c-27 -13 -54 -24 -60 -24 -5 1 13 11 40 24 28
13 55 24 60 24 6 -1 -12 -11 -40 -24z m5119 -64 c-3 -40 -9 -70 -11 -67 -3 3
-2 37 2 76 4 39 9 69 12 67 2 -3 1 -37 -3 -76z m-2893 -3 c-11 -23 -18 -32
-15 -18 11 43 24 73 30 67 3 -3 -4 -25 -15 -49z m4043 -18 c3 -14 -3 -7 -13
15 -11 22 -20 45 -20 50 0 15 26 -37 33 -65z m-6344 55 c0 -4 -50 -28 -130
-62 -56 -24 -28 -5 46 32 69 33 84 39 84 30z m4249 -141 c-7 -60 -14 -103 -16
-97 -3 7 0 52 6 100 6 49 11 94 11 102 0 8 3 12 6 9 3 -3 0 -55 -7 -114z
m-1241 38 c-6 -29 -13 -50 -16 -47 -2 2 1 27 8 55 7 28 14 49 16 47 3 -2 -1
-27 -8 -55z m-929 -26 c-11 -32 -23 -56 -25 -54 -2 2 6 30 18 61 11 32 23 56
25 54 2 -3 -6 -30 -18 -61z m1932 -112 l-10 -49 4 55 c3 30 6 82 7 115 l2 60
3 -66 c2 -37 -1 -89 -6 -115z m-4181 161 c0 -3 -31 -21 -70 -40 -38 -19 -70
-33 -70 -30 0 4 126 72 138 75 1 0 2 -2 2 -5z m2392 -137 c-181 -368 -426
-627 -765 -808 -96 -51 -127 -56 -65 -10 79 59 219 193 306 295 115 135 204
267 288 428 35 67 64 118 64 114 0 -13 -78 -165 -128 -249 -87 -147 -203 -291
-356 -443 -84 -83 -136 -140 -116 -129 19 12 53 31 75 44 148 85 313 223 431
360 95 112 212 298 285 457 18 40 35 70 38 68 2 -3 -23 -60 -57 -127z m2953
25 c-9 -76 -17 -61 -8 18 3 35 8 58 11 51 2 -7 1 -38 -3 -69z m1210 32 c4 -21
3 -25 -3 -15 -15 24 -26 67 -14 55 6 -5 13 -23 17 -40z m-6705 1 c0 -3 -26
-19 -57 -37 -306 -174 -618 -446 -820 -714 -86 -114 -90 -119 -73 -85 25 48
141 189 245 299 186 193 378 348 591 476 111 66 114 68 114 61z m3307 -28 c-3
-8 -6 -5 -6 6 -1 11 2 17 5 13 3 -3 4 -12 1 -19z m-14 -50 c-9 -49 -25 -82
-17 -38 7 45 14 70 19 70 3 0 2 -15 -2 -32z m3461 -78 l6 -35 -13 35 c-8 19
-17 49 -20 65 l-6 30 13 -30 c8 -16 16 -46 20 -65z m-880 -19 c-9 -40 -18 -70
-21 -67 -3 3 2 37 12 76 10 39 19 69 22 67 2 -3 -4 -37 -13 -76z m-1327 22
c-3 -10 -5 -2 -5 17 0 19 2 27 5 18 2 -10 2 -26 0 -35z m1860 15 c-3 -7 -5 -2
-5 12 0 14 2 19 5 13 2 -7 2 -19 0 -25z m-930 -20 c-3 -7 -5 -2 -5 12 0 14 2
19 5 13 2 -7 2 -19 0 -25z m-2390 -30 c-3 -7 -5 -2 -5 12 0 14 2 19 5 13 2 -7
2 -19 0 -25z m180 10 c-3 -8 -6 -5 -6 6 -1 11 2 17 5 13 3 -3 4 -12 1 -19z
m1050 -25 c-3 -10 -5 -2 -5 17 0 19 2 27 5 18 2 -10 2 -26 0 -35z m2119 -193
c3 -96 1 -211 -4 -255 -7 -64 -8 -37 -8 140 1 121 -2 252 -6 290 -5 53 -4 61
3 35 5 -19 12 -114 15 -210z m-971 149 c-4 -39 -11 -83 -16 -97 -8 -24 -8 -23
-4 8 2 19 7 63 11 98 4 34 9 62 11 62 3 0 2 -32 -2 -71z m-936 -33 c-7 -47
-14 -84 -17 -82 -2 3 1 44 8 91 7 47 14 84 17 82 2 -3 -1 -44 -8 -91z m-1280
30 c-6 -26 -14 -44 -17 -42 -2 3 1 26 8 51 17 59 24 52 9 -9z m3546 -65 c3
-20 -4 -4 -15 34 -11 39 -19 75 -19 80 1 16 28 -75 34 -114z m-3729 -2 c-8
-45 -18 -85 -22 -88 -4 -3 -4 5 -1 19 3 14 11 56 18 93 6 37 13 66 16 63 2 -2
-2 -41 -11 -87z m1239 11 c-4 -39 -9 -69 -12 -67 -2 3 -1 37 3 76 3 40 9 70
11 67 3 -3 2 -37 -2 -76z m1535 -12 c-17 -76 -21 -90 -26 -85 -2 2 3 36 13 75
9 40 19 70 21 67 2 -2 -1 -28 -8 -57z m-2613 -10 c-3 -8 -6 -5 -6 6 -1 11 2
17 5 13 3 -3 4 -12 1 -19z m2560 -60 c-2 -13 -4 -3 -4 22 0 25 2 35 4 23 2
-13 2 -33 0 -45z m1020 0 c-3 -8 -6 -5 -6 6 -1 11 2 17 5 13 3 -3 4 -12 1 -19z
m-3608 -42 c-6 -26 -13 -45 -16 -43 -2 3 1 26 8 51 6 26 13 45 16 43 2 -3 -1
-26 -8 -51z m1308 17 c-3 -10 -5 -4 -5 12 0 17 2 24 5 18 2 -7 2 -21 0 -30z
m-220 5 c-3 -8 -6 -5 -6 6 -1 11 2 17 5 13 3 -3 4 -12 1 -19z m1150 -25 c-3
-10 -5 -4 -5 12 0 17 2 24 5 18 2 -7 2 -21 0 -30z m1392 -87 c1 -63 -6 -37
-12 44 -4 56 -3 65 3 35 5 -22 9 -58 9 -79z m-3792 82 c-3 -8 -6 -5 -6 6 -1
11 2 17 5 13 3 -3 4 -12 1 -19z m2773 12 c0 -5 -4 -10 -10 -10 -5 0 -10 5 -10
10 0 6 5 10 10 10 6 0 10 -4 10 -10z m-1313 -32 c-3 -8 -6 -5 -6 6 -1 11 2 17
5 13 3 -3 4 -12 1 -19z m-220 -20 c-3 -7 -5 -2 -5 12 0 14 2 19 5 13 2 -7 2
-19 0 -25z m-1257 -38 c-15 -57 -21 -46 -7 14 6 27 13 44 15 38 2 -6 -2 -29
-8 -52z m2405 -1 c-4 -33 -11 -73 -16 -87 -8 -24 -8 -23 -4 8 2 19 7 59 11 88
4 28 9 52 11 52 3 0 2 -27 -2 -61z m-940 -14 c-3 -26 -9 -45 -12 -42 -2 3 -1
26 2 52 4 25 10 44 12 41 3 -3 2 -26 -2 -51z m-218 -2 c-3 -10 -5 -4 -5 12 0
17 2 24 5 18 2 -7 2 -21 0 -30z m-1108 -32 c-7 -23 -14 -39 -16 -37 -3 2 1 23
8 45 7 23 14 39 16 37 3 -2 -1 -23 -8 -45z m1096 -41 c-4 -23 -9 -39 -11 -37
-3 2 -2 23 2 46 4 23 9 40 11 37 3 -3 2 -23 -2 -46z m-1271 -29 c-8 -29 -18
-51 -21 -48 -3 3 3 29 12 57 22 67 30 59 9 -9z m1483 17 c-3 -7 -5 -2 -5 12 0
14 2 19 5 13 2 -7 2 -19 0 -25z m-23 -102 c-10 -42 -19 -74 -21 -72 -3 2 3 39
12 81 10 42 19 74 21 72 3 -2 -3 -39 -12 -81z m-1325 30 c-6 -21 -12 -36 -14
-34 -3 2 0 21 6 42 6 21 12 36 14 34 3 -2 0 -21 -6 -42z m2278 7 c-3 -10 -5
-4 -5 12 0 17 2 24 5 18 2 -7 2 -21 0 -30z m-1160 -5 c-3 -7 -5 -2 -5 12 0 14
2 19 5 13 2 -7 2 -19 0 -25z m-1293 -62 c-9 -26 -18 -45 -20 -43 -2 2 3 25 12
51 9 26 18 45 20 43 2 -2 -3 -25 -12 -51z m1276 -21 c-6 -31 -14 -55 -16 -52
-2 2 1 29 7 61 7 31 14 54 16 52 3 -2 -1 -30 -7 -61z m1164 8 c-4 -32 -11 -67
-15 -78 -7 -15 -8 -13 -4 10 2 17 7 51 11 78 3 26 8 47 11 47 2 0 1 -26 -3
-57z m1033 -25 c-2 -13 -4 -5 -4 17 -1 22 1 32 4 23 2 -10 2 -28 0 -40z
m-3343 -32 c-9 -26 -18 -45 -20 -43 -2 2 3 25 12 51 9 26 18 45 20 43 2 -2 -3
-25 -12 -51z m-173 -37 c-11 -24 -20 -41 -20 -37 -1 12 31 89 35 85 3 -2 -4
-24 -15 -48z m1500 -34 c-11 -38 -20 -64 -20 -57 -1 19 32 148 36 137 1 -6 -6
-41 -16 -80z m2006 38 c-3 -10 -5 -4 -5 12 0 17 2 24 5 18 2 -7 2 -21 0 -30z
m-2223 -67 c-9 -37 -18 -65 -21 -63 -2 3 4 34 13 71 9 37 18 65 21 63 2 -3 -4
-34 -13 -71z m-5197 -38 c-28 -51 -73 -142 -99 -203 -26 -60 -48 -105 -48 -98
0 27 116 275 166 355 44 69 33 40 -19 -54z m4030 -4 c-50 -116 -122 -256 -179
-348 -52 -84 -177 -246 -191 -246 -4 0 20 32 53 72 78 92 137 183 205 311 47
90 109 225 129 281 3 10 9 17 11 14 3 -3 -10 -41 -28 -84z m2340 54 c-3 -7 -5
-2 -5 12 0 14 2 19 5 13 2 -7 2 -19 0 -25z m1028 -68 c-10 -50 -19 -89 -22
-87 -2 3 4 46 13 96 9 50 19 89 22 87 2 -3 -3 -46 -13 -96z m-3534 3 c-11 -21
-20 -35 -21 -31 0 12 33 78 38 74 2 -2 -6 -21 -17 -43z m2496 5 c-3 -7 -5 -2
-5 12 0 14 2 19 5 13 2 -7 2 -19 0 -25z m-970 -20 c-3 -8 -6 -5 -6 6 -1 11 2
17 5 13 3 -3 4 -12 1 -19z m953 -58 l-11 -25 6 25 c2 14 5 34 6 45 2 19 2 19
6 0 2 -12 -1 -32 -7 -45z m-1186 -19 c-9 -34 -19 -60 -21 -58 -2 3 4 32 13 66
10 33 19 59 21 57 3 -2 -3 -32 -13 -65z m214 11 c-6 -24 -13 -41 -15 -38 -2 2
1 23 7 46 6 23 13 40 15 38 2 -2 -1 -23 -7 -46z m-1538 10 c0 -5 -7 -17 -15
-28 -14 -18 -14 -17 -4 9 12 27 19 34 19 19z m3528 -90 c-6 -29 -13 -50 -16
-47 -2 2 1 27 8 55 7 28 14 49 16 47 3 -2 -1 -27 -8 -55z m-1031 16 c-3 -7 -5
-2 -5 12 0 14 2 19 5 13 2 -7 2 -19 0 -25z m-2562 -52 c-20 -36 -39 -66 -41
-66 -3 0 12 31 33 69 21 38 39 68 41 66 2 -2 -13 -33 -33 -69z m1564 -15 c-7
-23 -14 -39 -16 -37 -3 2 1 23 8 45 7 23 14 39 16 37 3 -2 -1 -23 -8 -45z
m980 -20 c-6 -34 -14 -60 -16 -57 -2 2 1 32 8 65 6 34 14 60 16 57 2 -2 -1
-32 -8 -65z m-1199 -6 c-7 -20 -14 -35 -16 -33 -2 2 2 21 8 41 6 20 13 35 16
33 2 -3 -1 -21 -8 -41z m2227 -7 c-3 -8 -6 -5 -6 6 -1 11 2 17 5 13 3 -3 4
-12 1 -19z m-24 -81 c-9 -32 -18 -56 -20 -53 -2 2 3 29 12 61 9 31 19 55 21
53 2 -3 -4 -30 -13 -61z m-3608 23 c-9 -16 -18 -30 -21 -30 -2 0 2 14 11 30 9
17 18 30 21 30 2 0 -2 -13 -11 -30z m1365 -55 c-12 -36 -24 -65 -26 -63 -2 2
6 34 18 71 12 36 24 65 26 62 2 -2 -6 -34 -18 -70z m199 -29 c-17 -48 -33 -85
-35 -83 -2 2 10 42 28 90 17 48 33 86 35 84 2 -3 -11 -43 -28 -91z m-5435 30
c-9 -26 -18 -45 -20 -43 -2 2 3 25 12 51 9 26 18 45 20 43 2 -2 -3 -25 -12
-51z m6453 32 c-3 -8 -6 -5 -6 6 -1 11 2 17 5 13 3 -3 4 -12 1 -19z m-2629
-58 c-54 -93 -185 -266 -275 -366 l-97 -107 50 28 c81 47 172 114 240 177 35
34 67 58 70 56 7 -8 -132 -128 -207 -179 -83 -56 -181 -111 -187 -104 -3 2 42
53 99 112 99 103 219 257 289 371 17 28 34 52 37 52 3 0 -6 -18 -19 -40z
m2611 -24 c-7 -31 -14 -54 -16 -52 -3 3 1 30 8 60 7 31 14 54 16 52 3 -3 -1
-30 -8 -60z m1002 -47 c-11 -30 -20 -49 -20 -43 -1 15 30 106 35 101 2 -2 -5
-28 -15 -58z m-2247 -28 c-9 -23 -18 -40 -20 -38 -2 2 4 22 13 45 9 23 18 40
20 38 2 -2 -4 -22 -13 -45z m-5230 -5 c-3 -15 -8 -25 -11 -23 -2 3 -1 17 3 31
3 15 8 25 11 23 2 -3 1 -17 -3 -31z m6431 -96 c-10 -39 -19 -69 -21 -67 -3 2
3 36 13 75 9 40 19 70 21 67 2 -2 -3 -36 -13 -75z m1605 -36 c-7 -47 -14 -83
-16 -81 -3 2 1 49 8 103 7 54 14 91 16 81 2 -11 -2 -57 -8 -103z m-2649 9
c-47 -109 -119 -253 -126 -253 -6 0 4 23 47 105 32 63 74 157 99 224 5 13 12
21 15 19 2 -3 -13 -46 -35 -95z m2048 33 c-12 -31 -24 -55 -26 -53 -2 3 6 30
18 61 11 32 23 55 25 53 3 -2 -5 -30 -17 -61z m-7452 32 c-3 -8 -6 -5 -6 6 -1
11 2 17 5 13 3 -3 4 -12 1 -19z m5207 -37 c-9 -23 -18 -40 -20 -38 -2 2 4 22
13 45 9 23 18 40 20 38 2 -2 -4 -22 -13 -45z m-5217 -3 c-3 -8 -6 -5 -6 6 -1
11 2 17 5 13 3 -3 4 -12 1 -19z m-21 -99 c-8 -35 -14 -56 -15 -47 -1 23 20
120 25 115 2 -2 -2 -33 -10 -68z m5190 -6 c-14 -26 -25 -45 -26 -41 0 12 43
98 48 94 2 -2 -8 -26 -22 -53z m2225 -50 c-69 -156 -189 -388 -197 -380 -2 2
25 57 61 123 56 103 138 279 159 338 4 10 9 17 12 14 2 -3 -13 -46 -35 -95z
m-976 12 c-9 -31 -19 -55 -21 -53 -2 3 4 30 13 61 9 32 18 56 20 53 2 -2 -3
-29 -12 -61z m1622 -27 c-3 -7 -5 -2 -5 12 0 14 2 19 5 13 2 -7 2 -19 0 -25z
m-2897 4 c0 -5 -7 -17 -15 -28 -14 -18 -14 -17 -4 9 12 27 19 34 19 19z
m-5183 -34 c-3 -8 -6 -5 -6 6 -1 11 2 17 5 13 3 -3 4 -12 1 -19z m8063 -64
c-16 -76 -22 -63 -8 15 7 35 14 59 16 53 2 -7 -2 -37 -8 -68z m-1633 34 c-3
-8 -6 -5 -6 6 -1 11 2 17 5 13 3 -3 4 -12 1 -19z m-1292 -27 c-21 -43 -29 -39
-8 4 9 19 18 33 21 31 2 -2 -4 -18 -13 -35z m-5160 -106 c-13 -98 -14 -101 -9
-30 5 83 14 148 20 143 2 -2 -3 -53 -11 -113z m6435 70 c-7 -20 -14 -35 -16
-33 -2 2 2 21 8 41 6 20 13 35 16 33 2 -3 -1 -21 -8 -41z m-1116 -42 c-114
-197 -282 -401 -437 -530 -86 -72 -209 -159 -257 -182 l-25 -12 22 18 c12 10
44 31 70 47 201 124 448 381 594 621 55 90 80 118 33 38z m-210 -19 c-49 -89
-127 -215 -138 -222 -6 -3 -2 7 9 23 26 41 117 194 134 227 8 16 16 26 18 24
2 -2 -8 -26 -23 -52z m1291 -44 c-9 -28 -19 -50 -21 -48 -2 2 4 27 13 56 9 28
19 50 21 47 2 -2 -4 -27 -13 -55z m1649 -14 c-9 -37 -18 -65 -21 -63 -2 3 4
34 13 71 9 37 18 65 21 63 2 -3 -4 -34 -13 -71z m-8067 -173 c-2 -21 -4 -6 -4
32 0 39 2 55 4 38 2 -18 2 -50 0 -70z m6372 58 c-6 -18 -13 -30 -15 -28 -2 2
1 18 7 36 6 18 13 30 15 28 2 -2 -1 -18 -7 -36z m1665 5 c-3 -15 -8 -25 -11
-23 -2 3 -1 17 3 31 3 15 8 25 11 23 2 -3 1 -17 -3 -31z m-775 -47 c-58 -108
-248 -372 -361 -501 -165 -188 -375 -374 -552 -491 -143 -94 -146 -88 -6 8
153 105 253 188 386 320 219 218 344 376 517 658 20 32 33 37 16 6z m751 -26
c-11 -17 -11 -17 -6 0 3 10 6 24 7 30 0 9 2 9 5 0 3 -7 0 -20 -6 -30z m-1671
-14 c-7 -19 -16 -38 -20 -44 -5 -5 -2 12 7 38 9 27 18 46 20 44 2 -2 -1 -19
-7 -38z m-1374 -6 c-9 -16 -30 -44 -46 -63 -20 -22 -15 -12 12 28 44 64 62 83
34 35z m2994 -132 c-17 -45 -33 -81 -35 -79 -2 2 11 43 29 91 18 47 33 83 35
78 1 -4 -12 -45 -29 -90z m-1684 -17 c-15 -33 -31 -70 -36 -83 -5 -13 -12 -22
-14 -19 -3 3 11 41 32 86 20 45 38 80 40 78 2 -2 -8 -30 -22 -62z m-1385 42
c0 -2 -8 -10 -17 -17 -16 -13 -17 -12 -4 4 13 16 21 21 21 13z m-92 -112 c-35
-42 -69 -85 -77 -95 -7 -10 -17 -19 -22 -19 -5 0 28 43 73 95 44 52 83 95 85
95 2 0 -24 -34 -59 -76z m3113 -31 c-12 -20 -14 -14 -5 12 4 9 9 14 11 11 3
-2 0 -13 -6 -23z m-1725 -92 c-20 -39 -38 -71 -41 -71 -3 0 12 34 32 75 20 41
39 73 41 71 2 -2 -13 -36 -32 -75z m1705 46 c-10 -9 -11 -8 -5 6 3 10 9 15 12
12 3 -3 0 -11 -7 -18z m-55 -124 c-75 -155 -247 -440 -277 -458 -5 -4 32 56
81 132 50 76 123 204 163 284 39 80 74 144 76 143 2 -2 -17 -48 -43 -101z
m-7839 0 c-2 -21 -4 -6 -4 32 0 39 2 55 4 38 2 -18 2 -50 0 -70z m4645 24
c-23 -24 -40 -46 -36 -49 6 -6 -48 -38 -63 -38 -8 1 128 129 137 130 2 0 -15
-19 -38 -43z m1457 -109 c-181 -311 -400 -571 -625 -740 -52 -39 -94 -72 -94
-74 0 -2 19 -2 43 1 35 3 37 3 12 -4 -16 -5 -45 -9 -63 -10 -30 -1 -23 6 85
88 107 81 254 220 345 326 91 107 247 334 300 439 16 32 32 56 35 53 2 -3 -14
-38 -38 -79z m-4275 63 c-9 -9 -210 -23 -201 -15 3 3 42 8 88 12 46 4 93 8
103 9 10 1 15 -2 10 -6z m131 -5 c11 -2 -10 -4 -47 -5 -38 0 -68 2 -68 7 0 7
67 6 115 -2z m73 -13 c-10 -2 -26 -2 -35 0 -10 3 -2 5 17 5 19 0 27 -2 18 -5z
m-473 -19 c-356 -102 -639 -314 -1090 -814 -76 -85 -144 -157 -150 -159 -27
-11 359 404 495 530 249 233 525 400 745 452 46 11 46 4 0 -9z m577 1 c72 -19
200 -66 195 -72 -3 -2 -29 6 -58 18 -30 11 -92 31 -139 44 -47 13 -79 24 -71
24 7 1 40 -6 73 -14z m-2109 -200 c5 -46 4 -52 -3 -25 -5 19 -11 80 -14 135
-4 93 -4 95 4 25 4 -41 11 -102 13 -135z m2378 99 c5 -3 -4 -29 -18 -59 -15
-30 -29 -53 -31 -51 -2 2 8 27 22 54 l25 50 -29 11 c-17 5 -30 12 -30 15 0 5
44 -9 61 -20z m-65 -161 c-8 -15 -15 -25 -16 -21 0 12 23 58 27 54 3 -2 -2
-17 -11 -33z m-2299 -70 c-3 -10 -5 -4 -5 12 0 17 2 24 5 18 2 -7 2 -21 0 -30z
m2253 -58 c-16 -47 -23 -40 -8 8 6 20 13 35 16 33 2 -3 -1 -21 -8 -41z m-2243
-12 c-3 -10 -5 -2 -5 17 0 19 2 27 5 18 2 -10 2 -26 0 -35z m7466 -68 c-21
-30 -42 -54 -46 -55 -4 0 11 25 34 55 53 71 61 71 12 0z m-7450 -10 c4 -34 3
-42 -3 -25 -8 25 -13 87 -6 79 2 -2 6 -26 9 -54z m2204 23 c-3 -8 -6 -5 -6 6
-1 11 2 17 5 13 3 -3 4 -12 1 -19z m-21 -84 c-8 -32 -15 -51 -15 -41 -1 22 20
109 25 104 3 -2 -2 -30 -10 -63z m3969 -10 c-23 -18 -204 -110 -192 -98 8 8
199 112 207 113 3 0 -4 -7 -15 -15z m1234 -1 c-60 -78 -269 -311 -269 -300 0
4 32 42 71 84 40 42 101 112 137 155 36 43 67 78 70 78 2 0 -2 -8 -9 -17z
m-7372 -25 c-3 -8 -6 -5 -6 6 -1 11 2 17 5 13 3 -3 4 -12 1 -19z m10 -60 c-3
-7 -5 -2 -5 12 0 14 2 19 5 13 2 -7 2 -19 0 -25z m2140 -5 c-3 -10 -5 -4 -5
12 0 17 2 24 5 18 2 -7 2 -21 0 -30z m-2124 -58 c5 -28 4 -34 -3 -20 -8 19
-14 73 -6 64 2 -2 6 -22 9 -44z m5907 41 c0 -7 -181 -79 -186 -73 -3 3 12 11
33 18 21 6 60 23 88 35 48 23 65 28 65 20z m-228 -92 c-40 -17 -185 -60 -232
-67 -23 -4 -17 -1 15 9 28 8 91 28 140 43 99 32 128 37 77 15z m-5626 -201
c-5 -5 -36 130 -35 149 1 7 10 -23 20 -66 11 -44 17 -81 15 -83z m5347 120
c-7 -2 -19 -2 -25 0 -7 3 -2 5 12 5 14 0 19 -2 13 -5z m1667 -37 c0 -2 -8 -10
-17 -17 -16 -13 -17 -12 -4 4 13 16 21 21 21 13z m-4943 -68 c-2 -13 -4 -5 -4
17 -1 22 1 32 4 23 2 -10 2 -28 0 -40z m4867 -5 c-146 -136 -324 -290 -324
-280 0 3 46 45 103 93 56 49 134 119 174 156 40 38 75 68 80 68 4 0 -11 -17
-33 -37z m-6893 -143 c4 0 28 23 53 51 25 28 46 47 46 42 0 -17 -100 -107
-109 -98 -9 11 -32 97 -30 117 1 7 8 -15 17 -49 8 -35 19 -63 23 -63z m2054
12 c-5 -6 -25 71 -24 93 0 11 7 -5 14 -35 7 -30 12 -57 10 -58z m28 -64 c16
-50 14 -67 -3 -23 -13 34 -24 81 -18 75 3 -3 12 -26 21 -52z m140 -258 c23
-30 61 -76 85 -102 25 -27 42 -48 39 -48 -9 0 -80 78 -125 136 -41 54 -122
193 -122 209 0 5 19 -24 41 -65 22 -41 59 -100 82 -130z m4337 167 c0 -2 -10
-12 -22 -23 l-23 -19 19 23 c18 21 26 27 26 19z m-85 -73 c-39 -34 -91 -68
-70 -46 16 17 100 82 105 82 3 -1 -13 -17 -35 -36z m-85 -62 c0 -4 -10 -13
-22 -21 -23 -14 -23 -14 -4 8 20 22 26 25 26 13z m-75 -57 c-34 -28 -160 -116
-184 -128 -23 -11 22 24 119 92 88 63 117 79 65 36z m-205 -140 c0 -5 -197
-138 -233 -156 -43 -23 -5 5 110 82 130 85 123 81 123 74z m-3518 -181 c38
-24 114 -69 171 -99 56 -30 98 -55 93 -55 -15 0 -192 97 -262 143 -76 50 -223
169 -224 180 0 4 35 -22 77 -58 42 -36 108 -86 145 -111z m3254 8 c-4 -7 -155
-101 -191 -120 -35 -18 21 22 98 70 98 61 101 63 93 50z m-206 -127 c0 -2 -10
-9 -22 -15 -22 -11 -22 -10 -4 4 21 17 26 19 26 11z m-2730 -51 l25 -15 -25 7
c-14 3 -29 10 -34 15 -16 14 6 10 34 -7z m2656 7 c-5 -7 -256 -153 -408 -238
-5 -2 -8 -2 -8 1 0 2 56 36 125 76 69 39 162 93 207 120 90 53 92 54 84 41z
m-2375 -109 c-11 -4 -203 57 -214 68 -5 4 43 -8 107 -29 63 -20 112 -37 107
-39z m89 -17 c30 -7 44 -13 30 -13 -24 0 -115 25 -95 27 6 0 35 -6 65 -14z
m87 -21 c-3 -3 -12 -4 -19 -1 -8 3 -5 6 6 6 11 1 17 -2 13 -5z m56 -11 c-7 -2
-19 -2 -25 0 -7 3 -2 5 12 5 14 0 19 -2 13 -5z m65 -10 c-10 -2 -26 -2 -35 0
-10 3 -2 5 17 5 19 0 27 -2 18 -5z m85 -10 c-13 -2 -33 -2 -45 0 -13 2 -3 4
22 4 25 0 35 -2 23 -4z m37 -8 c0 -2 -73 -53 -162 -112 -201 -133 -188 -125
-188 -118 0 4 340 234 348 235 1 0 2 -2 2 -5z m1525 -63 c-10 -9 -354 -206
-405 -232 -14 -7 -22 -9 -18 -5 8 9 420 245 428 245 2 0 0 -4 -5 -8z m-1885
-176 c0 -4 -431 -298 -470 -320 -59 -34 39 36 236 169 234 158 234 158 234
151z m1445 -75 c-6 -4 -129 -76 -275 -158 -368 -209 -759 -431 -924 -525 -76
-43 -141 -77 -143 -75 -2 2 74 48 169 102 246 140 728 413 967 549 194 110
228 128 206 107z m-1940 -259 c-47 -40 -674 -459 -650 -433 12 12 648 441 655
441 2 0 0 -4 -5 -8z m-2196 -284 c-2 -2 -20 -16 -39 -33 l-35 -30 29 33 c17
17 34 32 40 32 5 0 7 -1 5 -2z m-91 -95 c-14 -16 -58 -72 -98 -125 -40 -54
-74 -98 -77 -98 -7 0 7 19 87 124 41 54 79 105 85 112 5 8 14 14 19 14 6 0 -2
-12 -16 -27z m89 -165 c-2 -29 -3 -8 -3 47 0 55 1 79 3 53 2 -26 2 -71 0 -100z
m1528 93 c-16 -14 -245 -164 -460 -301 -238 -151 -230 -146 -222 -134 3 5 41
32 84 58 165 103 229 145 410 264 170 111 214 138 188 113z m1255 -55 c0 -4
-99 -63 -180 -108 -25 -14 -94 -53 -154 -87 -60 -34 -110 -60 -112 -58 -3 3
435 256 444 257 1 0 2 -2 2 -4z m-3090 -166 c-22 -33 -43 -60 -46 -60 -7 0 1
13 44 73 49 68 50 58 2 -13z m317 -132 c-2 -24 -4 -7 -4 37 0 44 2 63 4 43 2
-21 2 -57 0 -80z m-373 50 c-34 -55 -179 -275 -187 -283 -15 -16 9 27 51 92
21 32 60 91 86 131 26 39 49 72 52 72 3 0 2 -6 -2 -12z m2681 -18 c-7 -11
-105 -63 -105 -56 0 4 101 65 108 66 2 0 0 -5 -3 -10z m-115 -64 c0 -7 -72
-47 -77 -42 -3 2 12 14 34 25 42 22 43 23 43 17z m-90 -50 c0 -7 -142 -87
-147 -82 -2 2 29 22 69 44 79 44 78 44 78 38z m-1280 -10 c0 -4 -313 -194
-335 -203 -26 -11 37 33 100 69 39 23 106 63 150 89 81 50 85 52 85 45z m-813
-68 c-2 -13 -4 -5 -4 17 -1 22 1 32 4 23 2 -10 2 -28 0 -40z m1928 -17 c-14
-13 -132 -76 -122 -66 7 9 118 74 127 75 2 0 0 -4 -5 -9z m-1918 -108 c-2 -21
-4 -6 -4 32 0 39 2 55 4 38 2 -18 2 -50 0 -70z m-597 17 c-6 -11 -13 -20 -16
-20 -2 0 0 9 6 20 6 11 13 20 16 20 2 0 0 -9 -6 -20z m2380 15 c0 -2 -13 -11
-30 -20 -38 -19 -40 -11 -2 9 31 17 32 18 32 11z m-70 -40 c0 -2 -13 -11 -30
-20 -38 -19 -40 -11 -2 9 31 17 32 18 32 11z m-2351 -42 c-12 -21 -27 -42 -32
-48 -11 -11 9 29 31 63 24 37 25 25 1 -15z m1091 32 c0 -2 -13 -11 -30 -20
-38 -19 -40 -11 -2 9 31 17 32 18 32 11z m-443 -92 c-2 -16 -4 -5 -4 22 0 28
2 40 4 28 2 -13 2 -35 0 -50z m1628 58 c-15 -13 -151 -86 -142 -76 8 9 138 84
147 85 2 0 0 -4 -5 -9z m-1255 -6 c0 -2 -13 -11 -30 -20 -38 -19 -40 -11 -2 9
31 17 32 18 32 11z m-75 -44 c-6 -6 -71 -44 -145 -85 -147 -82 -155 -83 -147
-8 l4 37 1 -42 c1 -27 7 -43 15 -43 6 1 71 34 142 75 130 74 147 83 130 66z
m-997 -33 c-8 -13 -43 -71 -77 -130 -35 -60 -65 -108 -68 -108 -2 0 -2 3 0 8
74 133 147 252 154 252 3 0 -1 -10 -9 -22z m2172 -3 c0 -2 -13 -11 -30 -20
-38 -19 -40 -11 -2 9 31 17 32 18 32 11z m-70 -40 c0 -2 -13 -11 -30 -20 -38
-19 -40 -11 -2 9 31 17 32 18 32 11z m-70 -40 c0 -2 -13 -11 -30 -20 -38 -19
-40 -11 -2 9 31 17 32 18 32 11z m-70 -39 c0 -2 -26 -19 -57 -36 -32 -18 -78
-44 -103 -58 -25 -14 -40 -21 -35 -15 9 9 185 113 193 113 1 0 2 -2 2 -4z
m-210 -120 c0 -2 -50 -31 -111 -65 -60 -34 -127 -72 -147 -83 -20 -12 -32 -16
-27 -10 8 9 275 162 283 162 1 0 2 -2 2 -4z m-1927 -58 c-17 -29 -63 -113
-103 -185 -41 -73 -75 -131 -77 -129 -2 2 6 21 18 42 120 216 182 324 186 324
3 0 -8 -24 -24 -52z m1622 -116 c-8 -7 -796 -455 -979 -557 -28 -15 -72 -41
-99 -57 -27 -16 -51 -27 -54 -25 -3 3 429 251 1082 619 51 28 66 35 50 20z
m-1876 -344 c-38 -73 -101 -195 -139 -270 -39 -76 -73 -138 -76 -138 -6 0 187
379 245 483 60 105 42 59 -30 -75z m731 -302 c0 -7 -72 -47 -77 -42 -3 2 12
14 34 25 42 22 43 23 43 17z m-90 -50 c0 -5 -69 -46 -78 -46 -6 1 69 50 76 50
1 0 2 -2 2 -4z m-90 -51 c0 -2 -13 -11 -30 -20 -38 -19 -40 -11 -2 9 31 17 32
18 32 11z m-804 -94 c-20 -39 -38 -71 -41 -71 -2 0 2 12 9 28 49 105 58 123
62 119 3 -3 -11 -37 -30 -76z m734 54 c0 -2 -10 -9 -22 -15 -22 -11 -22 -10
-4 4 21 17 26 19 26 11z m-50 -30 c0 -2 -18 -14 -40 -25 -22 -11 -40 -18 -40
-15 0 2 17 13 38 24 42 23 42 23 42 16z m-90 -50 c0 -2 -13 -11 -30 -20 -38
-19 -40 -11 -2 9 31 17 32 18 32 11z m-70 -40 c0 -2 -13 -11 -30 -20 -38 -19
-40 -11 -2 9 31 17 32 18 32 11z m-70 -39 c0 -2 -30 -21 -67 -42 -38 -20 -87
-48 -110 -61 -24 -14 -43 -22 -43 -19 0 4 210 126 218 126 1 0 2 -2 2 -4z
m-235 -135 c-19 -16 -388 -222 -392 -218 -4 4 386 227 396 227 3 0 1 -4 -4 -9z"/>
</g>
</svg>
